<svg id="SvgjsSvg1103" width="288" height="288" xmlns="http://www.w3.org/2000/svg" version="1.1" xmlns:xlink="http://www.w3.org/1999/xlink" xmlns:svgjs="http://svgjs.com/svgjs"><defs id="SvgjsDefs1104"></defs><g id="SvgjsG1105"><svg xmlns="http://www.w3.org/2000/svg" width="288" height="288" enable-background="new 0 0 64 64" viewBox="0 0 64 64"><path fill-rule="evenodd" d="M55.785,0H8.215C3.697,0,0,3.696,0,8.214v47.571C0,60.304,3.697,64,8.215,64
	h47.571C60.303,64,64,60.304,64,55.786V8.214C64,3.696,60.303,0,55.785,0z M39.104,17.859l-3.985,0.002
	c-3.125,0-3.73,1.485-3.73,3.664v4.805h7.453l-0.97,7.526h-6.482v19.312h-7.772V33.857h-6.499V26.33h6.499v-5.55
	c0-6.441,3.934-9.949,9.68-9.949c2.752,0,5.118,0.205,5.808,0.297V17.859z" clip-rule="evenodd" fill="#ffffff" class="color000 svgShape"></path></svg></g></svg>