<svg id="SvgjsSvg1098" width="288" height="288" xmlns="http://www.w3.org/2000/svg" version="1.1" xmlns:xlink="http://www.w3.org/1999/xlink" xmlns:svgjs="http://svgjs.com/svgjs"><defs id="SvgjsDefs1099"></defs><g id="SvgjsG1100"><svg xmlns="http://www.w3.org/2000/svg" width="288" height="288" enable-background="new 0 0 64 64" viewBox="0 0 64 64"><path fill-rule="evenodd" d="M8.215,0h47.571C60.303,0,64,3.696,64,8.214v47.571C64,60.304,60.303,64,55.785,64
	H8.215C3.697,64,0,60.304,0,55.786V8.214C0,3.696,3.697,0,8.215,0L8.215,0z M46.621,7.111c-1.585,0-2.881,1.296-2.881,2.881v6.897
	c0,1.585,1.296,2.881,2.881,2.881h7.234c1.585,0,2.881-1.296,2.881-2.881V9.992c0-1.585-1.296-2.881-2.881-2.881H46.621
	L46.621,7.111z M56.766,27.065h-5.633c0.533,1.741,0.821,3.583,0.821,5.491c0,10.645-8.907,19.275-19.893,19.275
	c-10.986,0-19.893-8.63-19.893-19.275c0-1.908,0.288-3.751,0.821-5.491H7.111V54.1c0,1.399,1.145,2.544,2.544,2.544h44.567
	c1.399,0,2.544-1.145,2.544-2.544V27.065L56.766,27.065z M32.061,19.407c-7.099,0-12.854,5.576-12.854,12.454
	c0,6.878,5.755,12.454,12.854,12.454c7.099,0,12.854-5.576,12.854-12.454C44.914,24.983,39.16,19.407,32.061,19.407z" clip-rule="evenodd" fill="#ffffff" class="color000 svgShape"></path></svg></g></svg>