<svg xmlns="http://www.w3.org/2000/svg" width="30.555" height="23.699" viewBox="0 0 30.555 23.699">
  <g id="Mastercard" transform="translate(-0.004)">
    <path id="Path_6" data-name="Path 6" d="M122.664,29.443a1.024,1.024,0,0,0-.31-.209,1.241,1.241,0,0,0-.4-.072h-.231a.959.959,0,0,0-.245.072.721.721,0,0,0-.224.137,1.024,1.024,0,0,0-.18.216.938.938,0,0,0-.346-.325,1.053,1.053,0,0,0-.49-.123h-.195a.664.664,0,0,0-.195.058.974.974,0,0,0-.188.108.721.721,0,0,0-.166.188v-.31H119v2.5h.534V30.344a.721.721,0,0,1,.05-.281.555.555,0,0,1,.332-.339.721.721,0,0,1,.238-.043.541.541,0,0,1,.418.173.721.721,0,0,1,.151.483v1.392h.526V30.344a.721.721,0,0,1,.05-.281.584.584,0,0,1,.137-.209.577.577,0,0,1,.195-.13.721.721,0,0,1,.245-.043.541.541,0,0,1,.418.173.721.721,0,0,1,.144.483v1.392h.5V30.157a1.283,1.283,0,0,0-.072-.4,1.024,1.024,0,0,0-.209-.31Z" transform="translate(-117.434 -8.124)" fill="#231f20"/>
    <path id="Path_7" data-name="Path 7" d="M127.214,29.538a1.053,1.053,0,0,0-.325-.267,1.024,1.024,0,0,0-.462-.1,1.3,1.3,0,0,0-.49.1,1.262,1.262,0,0,0-.4.274,1.392,1.392,0,0,0-.267.411,1.515,1.515,0,0,0-.094.534,1.325,1.325,0,0,0,.361.945,1.248,1.248,0,0,0,.887.368,1.024,1.024,0,0,0,.462-.1.894.894,0,0,0,.325-.267v.3h.548v-2.5h-.548Zm0,1.269a.815.815,0,0,1-.151.252.62.62,0,0,1-.238.166.721.721,0,0,1-.31.065.808.808,0,0,1-.317-.065.779.779,0,0,1-.231-.173.814.814,0,0,1-.151-.252,1.01,1.01,0,0,1,0-.62.945.945,0,0,1,.151-.26.779.779,0,0,1,.231-.173.721.721,0,0,1,.317-.058.642.642,0,0,1,.31.058.62.62,0,0,1,.238.166.815.815,0,0,1,.151.252,1.992,1.992,0,0,1,0,.317,1.262,1.262,0,0,1,0,.274Z" transform="translate(-119.157 -8.132)" fill="#231f20"/>
    <path id="Path_8" data-name="Path 8" d="M131.426,30.5a1.161,1.161,0,0,0-.627-.224h-.231l-.166-.036a.461.461,0,0,1-.13-.043.288.288,0,0,1-.087-.072.18.18,0,0,1,0-.108.267.267,0,0,1,.13-.216.62.62,0,0,1,.361-.1h.216a2.043,2.043,0,0,1,.216.058.823.823,0,0,1,.188.065l.137.072.238-.426a1.846,1.846,0,0,0-.462-.195,2.387,2.387,0,0,0-.555-.065,1.673,1.673,0,0,0-.426.05,1.132,1.132,0,0,0-.325.159.706.706,0,0,0-.281.591.613.613,0,0,0,.216.49,1.2,1.2,0,0,0,.635.238l.26.036a.721.721,0,0,1,.325.1.2.2,0,0,1,.108.173.252.252,0,0,1-.144.224.865.865,0,0,1-.426.087h-.274l-.231-.043-.245-.094-.144-.1-.252.411a1.37,1.37,0,0,0,.281.166,1.442,1.442,0,0,0,.3.094,2.517,2.517,0,0,0,.267.05h.274a1.817,1.817,0,0,0,.483-.065.966.966,0,0,0,.361-.166.721.721,0,0,0,.216-.26.6.6,0,0,0,.079-.332.613.613,0,0,0-.281-.519Z" transform="translate(-120.347 -8.143)" fill="#231f20"/>
    <path id="Path_9" data-name="Path 9" d="M138.457,29.538a1.1,1.1,0,0,0-.375-.274,1.19,1.19,0,0,0-.476-.094,1.334,1.334,0,0,0-.5.094,1.233,1.233,0,0,0-.389.274,1.168,1.168,0,0,0-.26.411,1.529,1.529,0,0,0,0,1.075,1.053,1.053,0,0,0,.26.418,1.161,1.161,0,0,0,.4.267,1.442,1.442,0,0,0,.519.094,1.962,1.962,0,0,0,.541-.079,1.334,1.334,0,0,0,.483-.274l-.267-.389a1.024,1.024,0,0,1-.346.195,1,1,0,0,1-.382.072.721.721,0,0,1-.252,0,.822.822,0,0,1-.224-.115.851.851,0,0,1-.166-.195.9.9,0,0,1-.1-.3h1.846V30.49a1.688,1.688,0,0,0-.087-.534,1.176,1.176,0,0,0-.224-.418Zm-1.522.721a1.01,1.01,0,0,1,.072-.252,1,1,0,0,1,.123-.18.721.721,0,0,1,.2-.123.815.815,0,0,1,.26-.043.584.584,0,0,1,.425.159.851.851,0,0,1,.209.454Z" transform="translate(-122.272 -8.132)" fill="#231f20"/>
    <path id="Path_10" data-name="Path 10" d="M148.531,29.538a1.053,1.053,0,0,0-.325-.267,1.024,1.024,0,0,0-.462-.1,1.3,1.3,0,0,0-.49.1,1.01,1.01,0,0,0-.4.274,1.19,1.19,0,0,0-.267.411,1.522,1.522,0,0,0-.1.534,1.372,1.372,0,0,0,.368.945,1.074,1.074,0,0,0,.4.267,1.3,1.3,0,0,0,.49.1,1.024,1.024,0,0,0,.462-.1.894.894,0,0,0,.325-.267v.3h.541v-2.5h-.541Zm0,1.269a.746.746,0,0,1-.7.483.808.808,0,0,1-.317-.065.721.721,0,0,1-.238-.173.678.678,0,0,1-.144-.252.837.837,0,0,1,0-.62.745.745,0,0,1,1.4-.014,1.017,1.017,0,0,1,.05.325.721.721,0,0,1-.043.3Z" transform="translate(-125.098 -8.132)" fill="#231f20"/>
    <path id="Path_11" data-name="Path 11" d="M134.789,31a.829.829,0,0,1-.26.05h-.151a.245.245,0,0,1-.123-.079.562.562,0,0,1-.079-.144,1.085,1.085,0,0,1,0-.216V29.5h.88V29h-.88V28.21h-.548v.757h-.5V29.5h.5v1.1a.988.988,0,0,0,.238.721.9.9,0,0,0,.664.238,1.082,1.082,0,0,0,.426-.072l.231-.108-.18-.462Z" transform="translate(-121.373 -7.864)" fill="#231f20"/>
    <path id="Path_12" data-name="Path 12" d="M141.789,29.166a1,1,0,0,0-.411.087.873.873,0,0,0-.317.31v-.332h-.49v2.5h.5V30.356a.953.953,0,0,1,.043-.281.649.649,0,0,1,.123-.216,1.089,1.089,0,0,1,.188-.13.721.721,0,0,1,.245-.043,1.017,1.017,0,0,1,.209,0h.115l.159-.526h-.137a1.161,1.161,0,0,0-.224.007Z" transform="translate(-123.447 -8.128)" fill="#231f20"/>
    <path id="Path_13" data-name="Path 13" d="M152.3,29.166a1,1,0,0,0-.411.087.8.8,0,0,0-.31.31v-.332h-.5v2.5h.5V30.356a.953.953,0,0,1,.043-.281.649.649,0,0,1,.123-.216,1.089,1.089,0,0,1,.188-.13.721.721,0,0,1,.245-.043,1.017,1.017,0,0,1,.209,0h.115l.159-.526h-.137a1.161,1.161,0,0,0-.224.007Z" transform="translate(-126.377 -8.128)" fill="#231f20"/>
    <path id="Path_14" data-name="Path 14" d="M155.514,27.85v1.32a1.053,1.053,0,0,0-.325-.267.938.938,0,0,0-.462-.1,1.3,1.3,0,0,0-.49.1,1.262,1.262,0,0,0-.4.274,1.392,1.392,0,0,0-.267.411,1.515,1.515,0,0,0-.094.534,1.325,1.325,0,0,0,.361.945,1.248,1.248,0,0,0,.887.368.938.938,0,0,0,.462-.1.894.894,0,0,0,.325-.267v.3h.548V27.85Zm0,2.589a.815.815,0,0,1-.151.252.62.62,0,0,1-.238.166.721.721,0,0,1-.31.065.808.808,0,0,1-.317-.065.779.779,0,0,1-.231-.173.815.815,0,0,1-.151-.252,1.01,1.01,0,0,1,0-.62.69.69,0,0,1,.7-.49.642.642,0,0,1,.31.058.62.62,0,0,1,.238.166.815.815,0,0,1,.151.252,1,1,0,0,1,.058.325.866.866,0,0,1-.05.3Z" transform="translate(-127.046 -7.764)" fill="#231f20"/>
    <path id="Path_15" data-name="Path 15" d="M143.771,29.9a.8.8,0,0,1,.245-.159.764.764,0,0,1,.31-.058h0a.945.945,0,0,1,.346.058.721.721,0,0,1,.26.159l.267-.44a1.384,1.384,0,0,0-.332-.195,1.442,1.442,0,0,0-1.075,0,1.291,1.291,0,0,0-.426.281,1.255,1.255,0,0,0-.368.938,1.443,1.443,0,0,0,.1.519,1.637,1.637,0,0,0,.281.418,1.392,1.392,0,0,0,.425.274,1.442,1.442,0,0,0,1.075,0,1.385,1.385,0,0,0,.332-.195l-.267-.433a.967.967,0,0,1-.26.159,1.125,1.125,0,0,1-.346.058h0a1.017,1.017,0,0,1-.3,0,1.125,1.125,0,0,1-.245-.166.851.851,0,0,1-.166-.252.916.916,0,0,1,0-.649A.721.721,0,0,1,143.771,29.9Z" transform="translate(-124.124 -8.131)" fill="#231f20"/>
    <path id="Path_16" data-name="Path 16" d="M128.493,9.439A9.376,9.376,0,0,1,132.1,2.054a9.419,9.419,0,1,0,0,14.771,9.376,9.376,0,0,1-3.606-7.385Z" transform="translate(-116.83 -0.006)" fill="#ed2026"/>
    <path id="Path_17" data-name="Path 17" d="M136.606,2.776c1.781-.858,3.606,3.3,3.606,7.385s-1.882,8.4-3.606,7.385A8.277,8.277,0,0,1,133,10.161C133.043,6.087,135.423,3.339,136.606,2.776Z" transform="translate(-121.337 -0.742)" fill="#f26a21"/>
    <path id="Path_18" data-name="Path 18" d="M158.218,19.993v-.274h-.108V19.64h.3v.079h-.072v.274Zm.591,0v-.245l-.079.209h-.087l-.079-.209v.245h-.079V19.64h.115l.087.224.087-.224h.123v.353Z" transform="translate(-128.337 -5.475)" fill="#f99f1d"/>
    <path id="Path_19" data-name="Path 19" d="M143.835,0A9.376,9.376,0,0,0,138,2.034,9.376,9.376,0,0,1,139.594,15.2l-.043.058A9.274,9.274,0,0,1,138,16.8,9.419,9.419,0,1,0,143.835,0Z" transform="translate(-122.731 0)" fill="#f99f1d"/>
  </g>
</svg>
