<svg xmlns="http://www.w3.org/2000/svg" width="55.93" height="18.375" viewBox="0 0 55.93 18.375">
  <g id="Visa" style="isolation: isolate">
    <path id="path3071" d="M3.149,1.34H0v.55H0c2.461.077,3.193,1.233,3.463,2.565L4.916,18.813H9.683L19.867,1.34H15.1L8.979,11.854,7.944,1.34Z" transform="translate(0 -1.114)" fill="#273270" fill-rule="evenodd"/>
    <path id="rect3086" d="M36.084,1.33h4.63L35.038,18.808H30.43Z" transform="translate(-13.678 -1.11)" fill="#273270" fill-rule="evenodd"/>
    <path id="path3089" d="M79.7,2,70.76,19.109h5.021l1.3-2.615h5.824l.2,2.615h4.624L86.427,2Zm2.433,4.4.55,7.25H78.522Z" transform="translate(-31.807 -1.411)" fill="#273270" fill-rule="evenodd"/>
    <path id="path3105" d="M48.32,5.6C49.014,2.846,51.293.93,55.174.93A10.845,10.845,0,0,1,61.5,3.215L58.752,6.1s-2.031-1.591-3.231-1.591c-1.58,0-2.3.578-2.444,1.53-.292,1.894,6.457,3.05,6.243,7.465-.143,2.945-3.193,5.8-6.677,5.8-5.23,0-7.812-2.092-7.812-2.092l2.356-3.364s2.378,1.894,4.58,1.789c1.5-.066,2.653-.644,2.576-1.651-.176-2.3-7.278-3.358-6.022-8.384Z" transform="translate(-20.151 -0.93)" fill="#273270"/>
  </g>
</svg>
